# AST/ASF file generated using VICON BodyLanguage
# -----------------------------------------------
:version 1.10
:name VICON
:units
  mass 1.0
  length 0.45
  angle deg
:documentation
   .ast/.asf automatically generated from VICON data using
   VICON BodyBuilder and BodyLanguage model FoxedUp or BRILLIANT.MOD
:root
   order TX TY TZ RX RY RZ
   axis XYZ
   position 0 0 0  
   orientation 0 0 0 
:bonedata
  begin
     id 1 
     name lhipjoint
     direction 0.603808 -0.713975 0.35448 
     length 2.2025 
     axis 0 0 0  XYZ
  end
  begin
     id 2 
     name lfemur
     direction 0.34202 -0.939693 0  
     length 6.55877  
     axis 0 0 20  XYZ
    dof rx ry rz
    limits (-160.0 20.0)
           (-70.0 70.0)
           (-60.0 70.0)
  end
  begin
     id 3 
     name ltibia
     direction 0.34202 -0.939693 0   
     length 6.80302   
     axis 0 0 20   XYZ
    dof rx
    limits (-10.0 170.0)
  end
  begin
     id 4 
     name lfoot
     direction 0.091848 -0.25235 0.963267   
     length 2.03446   
     axis -90 7.62852e-016 20   XYZ
    dof rx rz
    limits (-45.0 90.0)
           (-70.0 20.0)
  end
  begin
     id 5 
     name ltoes
     direction 1.53608e-011 -4.21925e-011 1   
     length 1.02033   
     axis -90 7.62852e-016 20   XYZ
    dof rx
    limits (-90.0 20.0)
  end
  begin
     id 6 
     name rhipjoint
     direction -0.587285 -0.724947 0.359928   
     length 2.16916  
     axis 0 0 0  XYZ 
  end
  begin
     id 7 
     name rfemur
     direction -0.34202 -0.939693 0   
     length 6.43173   
     axis 0 0 -20   XYZ
    dof rx ry rz
    limits (-160.0 20.0)
           (-70.0 70.0)
           (-70.0 60.0)
  end
  begin
     id 8 
     name rtibia
     direction -0.34202 -0.939693 0   
     length 6.70662   
     axis 0 0 -20   XYZ
    dof rx
    limits (-10.0 170.0)
 end
 begin
     id 9 
     name rfoot
     direction -0.11854 -0.325686 0.938018   
     length 2.0773  
     axis -90 -7.62852e-016 -20   XYZ
    dof rx rz
    limits (-45.0 90.0)
           (-20.0 70.0)
  end
  begin
     id 10 
     name rtoes
     direction -1.53547e-011 -4.21838e-011 1   
     length 1.03267   
     axis -90 -7.62852e-016 -20   XYZ
    dof rx
    limits (-90.0 20.0)
  end
  begin
     id 11 
     name lowerback
     direction -0.0286554 0.999539 0.0100613   
     length 2.08751   
     axis 0 0 0   XYZ
    dof rx ry rz
    limits (-20.0 45.0)
           (-30.0 30.0)
           (-30.0 30.0)
  end
  begin
     id 12 
     name upperback
     direction 0.0227093 0.999705 -0.00860929   
     length 2.08517   
     axis 0 0 0   XYZ
    dof rx ry rz
    limits (-20.0 45.0)
           (-30.0 30.0)
           (-30.0 30.0)
  end
  begin
     id 13 
     name thorax
     direction 0.0351627 0.999285 -0.013892   
     length 2.08412   
     axis 0 0 0   XYZ
    dof rx ry rz
    limits (-20.0 45.0)
           (-30.0 30.0)
           (-30.0 30.0)
  end
  begin
     id 14 
     name lowerneck
     direction -0.0696283 0.997344 0.0213922   
     length 1.44164   
     axis 0 0 0   XYZ
    dof rx ry rz
    limits (-20.0 45.0)
           (-30.0 30.0)
           (-30.0 30.0)
  end
  begin
     id 15 
     name upperneck
     direction 0.0531 0.990412 -0.127531   
     length 1.45022   
     axis 0 0 0   XYZ
    dof rx ry rz
    limits (-20.0 45.0)
           (-30.0 30.0)
           (-30.0 30.0)
  end
  begin
     id 16
     name head
     direction 0.0188154 0.998548 -0.0504727  
     length 1.45845  
     axis 0 0 0   XYZ
    dof rx ry rz
    limits (-20.0 45.0)
           (-30.0 30.0)
           (-30.0 30.0)
  end
  begin
     id 17 
     name lclavicle
     direction 0.961559 0.260051 0.088188  
     length 2.86057  
     axis 0 0 0   XYZ
    dof ry rz
    limits (-20.0 10.0)
           (0.0 20.0)
  end
  begin
     id 18 
     name lhumerus
     direction 1 -4.48959e-011 2.88185e-027   
     length 4.36901   
     axis 180 -30 -90   XYZ
    dof rx ry rz
    limits (-60.0 90.0)
           (-90.0 90.0)
           (-90.0 90.0)
  end
  begin
     id 19
     name lradius
     direction 1 -4.48965e-011 -3.92618e-028   
     length 3.21737   
     axis 180 -30 -90   XYZ
    dof rx
    limits (-10.0 170.0)
  end
  begin
     id 20
     name lwrist
     direction 1 -4.49037e-011 2.57246e-027   
     length 1.60869   
     axis -1.61769e-015 90 90   XYZ
    dof ry
    limits (-180.0 0.0)
 end
  begin
     id 21 
     name lhand
     direction 1 -4.48807e-011 5.12958e-027   
     length 0.564313   
     axis -3.27988e-015 90 90   XYZ
    dof rx rz
    limits (-90.0 90.0)
           (-45.0 45.0)
  end
  begin
     id 22 
     name lfingers
     direction 1 -4.48879e-011 1.02687e-026   
     length 0.454963   
     axis -6.5598e-015 90 90   XYZ
    dof rx
    limits (0.0 90.0)
  end
  begin
     id 23
     name lthumb
     direction 0.707107 -6.3475e-011 0.707107   
     length 0.653239   
     axis -90 45 2.19363e-014   XYZ
    dof rx rz
    limits (-45.0 45.0)
           (-45.0 45.0)
  end
  begin
     id 24 
     name rclavicle
     direction -0.954677 0.253915 0.155304   
     length 3.11497  
     axis 0 0 0   XYZ 
    dof ry rz
    limits (-10.0 20.0)
           (-20.0 0.0)
  end
  begin
     id 25 
     name rhumerus
     direction -1 -4.48958e-011 -8.20169e-028  
     length 4.34118   
     axis 180 30 90   XYZ
    dof rx ry rz
    limits (-90.0 60.0)
           (-90.0 90.0)
           (-90.0 90.0)
  end
  begin
     id 26 
     name rradius
     direction -1 -4.48978e-011 1.5676e-027   
     length 3.09531   
     axis 180 30 90   XYZ
    dof rx
    limits (-10.0 170.0)
  end
  begin
     id 27 
     name rwrist
     direction -1 -4.49001e-011 2.57123e-027   
     length 1.54765   
     axis -1.61769e-015 -90 -90   XYZ
    dof ry
    limits (-180.0 0.0)
  end
  begin
     id 28
     name rhand
     direction -1 -4.48847e-011 5.13225e-027   
     length 0.597446   
     axis -3.27988e-015 -90 -90   XYZ
    dof rx rz
    limits (-90.0 90.0)
           (-45.0 45.0)
  end
  begin
     id 29
     name rfingers
     direction -1 -4.49094e-011 1.02974e-026   
     length 0.481677   
     axis -6.5598e-015 -90 -90   XYZ
    dof rx
    limits (0.0 90.0)
  end
  begin
     id 30
     name rthumb
     direction -0.707107 -6.34859e-011 0.707107   
     length 0.691594   
     axis -90 -45 -2.19363e-014   XYZ
    dof rx rz
    limits (-45.0 45.0)
           (-45.0 45.0)
  end
:hierarchy
  begin
    root lhipjoint rhipjoint lowerback
    lhipjoint lfemur
    lfemur ltibia
    ltibia lfoot
    lfoot ltoes
    rhipjoint rfemur
    rfemur rtibia
    rtibia rfoot
    rfoot rtoes
    lowerback upperback
    upperback thorax
    thorax lowerneck lclavicle rclavicle
    lowerneck upperneck
    upperneck head
    lclavicle lhumerus
    lhumerus lradius
    lradius lwrist
    lwrist lhand lthumb
    lhand lfingers
    rclavicle rhumerus
    rhumerus rradius
    rradius rwrist
    rwrist rhand rthumb
    rhand rfingers
  end

#!OML:ASF I:\Acrobat_Osman\acrobat\cartwheel_test 2\Patient 1\Session 1\acrobat.ASF
:FULLY-SPECIFIED
:DEGREES
267
root 10.9835 17.3851 -6.58697 -179.818 217.655 -0.245538
lowerback -2.93171 3.68604 6.8124
upperback -12.2753 5.69979 5.60575
thorax -11.5873 2.12238 1.9929
lowerneck -0.00748233 -16.864 6.26246
upperneck -20.7806 -22.5997 -3.21225
head -7.49405 -9.51432 -0.560036
rclavicle 5.08889e-014 3.81667e-014
rhumerus -34.8758 66.79 -118.641
rradius 73.4819
rwrist 2.89708
rhand -14.3295 36.1963
rfingers 7.12502
rthumb 11.8114 6.54938
lclavicle 5.08889e-014 3.81667e-014
lhumerus 66.2794 36.9868 9.09039
lradius 56.5622
lwrist 6.56379
lhand -30.2878 -100.39
lfingers 7.12502
lthumb -3.5954 -130.339
rfemur 6.31902 2.32151 2.71294
rtibia 52.748
rfoot -2.73332 -24.8723
rtoes 0.545374
lfemur -370.148 5.01478 -395.276
ltibia 43.0416
lfoot 12.4938 -31.1343
ltoes -9.0866
268
root 11.0275 17.4024 -6.74941 -180.493 225.468 -0.918491
lowerback -1.53831 3.02298 6.33911
upperback -11.8465 5.01069 6.37813
thorax -12.0585 1.91851 3.06399
lowerneck -2.26676 -17.2492 6.42943
upperneck -16.0516 -22.8769 -7.16225
head -6.10221 -9.61435 -2.04095
rclavicle -9.46215e-014 -2.38542e-014
rhumerus -36.6736 66.2858 -119.035
rradius 74.2299
rwrist 2.2701
rhand -16.5596 35.0207
rfingers 7.12502
rthumb 9.6603 5.26223
lclavicle -9.46215e-014 -2.38542e-014
lhumerus 64.8417 36.0743 5.00142
lradius 55.3893
lwrist 4.4773
lhand -31.1699 -98.4971
lfingers 7.12502
lthumb -4.44725 -128.43
rfemur 4.57915 2.26439 0.501896
rtibia 52.8726
rfoot -3.98504 -23.5335
rtoes 0.454919
lfemur -371.673 4.15097 -395.978
ltibia 41.8578
lfoot 13.478 -29.1042
ltoes -3.24216
269
root 11.0809 17.4398 -6.92157 -180.946 233.731 -1.84646
lowerback -0.179168 2.50973 6.31494
upperback -11.341 4.49415 6.92228
thorax -12.3483 1.73739 3.65585
lowerneck -0.748649 -16.2176 -1.72847
upperneck -16.2072 -20.9041 2.60823
head -4.82129 -9.00094 1.7774
rclavicle 3.10104e-014 1.33583e-013
rhumerus -35.6563 64.7146 -117.6
rradius 76.1896
rwrist -0.936942
rhand -14.885 31.3834
rfingers 7.12502
rthumb 11.2756 1.70648
lclavicle 3.10104e-014 1.33583e-013
lhumerus 63.9225 34.8836 1.44256
lradius 54.0423
lwrist 2.65474
lhand -31.6286 -97.0331
lfingers 7.12502
lthumb -4.89012 -126.957
rfemur 2.09022 2.46002 -1.08005
rtibia 52.9009
rfoot -4.87156 -21.9167
rtoes -2.30862
lfemur -373.635 5.39801 -396.7
ltibia 40.776
lfoot 10.5782 -30.6235
ltoes -13.3702
270
root 11.1349 17.4512 -7.07614 -181.207 242.199 -3.0534
lowerback 1.38566 1.86225 6.43226
upperback -10.8463 3.838 7.54215
thorax -12.7722 1.47457 4.29515
lowerneck -2.01744 -15.6495 -4.2529
upperneck -13.511 -19.9092 3.41213
head -3.25857 -8.62572 2.0173
rclavicle 0 -5.08889e-014
rhumerus -35.2932 64.0021 -116.989
rradius 78.5572
rwrist -1.72986
rhand -19.2725 31.0906
rfingers 7.12502
rthumb 7.04213 1.22773
lclavicle 0 -5.08889e-014
lhumerus 62.2628 33.3464 -1.86436
lradius 52.8474
lwrist 0.648321
lhand -31.0153 -97.4405
lfingers 7.12502
lthumb -4.2979 -127.377
rfemur -0.729101 2.9287 -1.98166
rtibia 52.7379
rfoot -5.60796 -20.9841
rtoes -3.47973
lfemur -375.789 5.49905 -396.898
ltibia 39.8471
lfoot 9.95622 -31.0417
ltoes -13.7991
271
root 11.1912 17.4336 -7.21876 -181.608 250.702 -4.12852
lowerback 2.89118 1.15618 6.14278
upperback -10.2439 3.05842 8.27225
thorax -13.0446 1.20438 5.3362
lowerneck -4.50793 -14.7695 -7.02456
upperneck -10.2843 -18.3831 4.28334
head -1.45968 -8.00383 2.25735
rclavicle -8.5875e-014 -1.17681e-013
rhumerus -33.9454 63.8214 -115.441
rradius 81.7936
rwrist -4.4273
rhand -22.6714 29.6002
rfingers 7.12502
rthumb 3.76041 -0.34639
lclavicle -8.5875e-014 -1.17681e-013
lhumerus 60.207 31.4828 -4.1695
lradius 51.5173
lwrist -2.32622
lhand -29.7117 -99.7381
lfingers 7.12502
lthumb -3.03907 -129.696
rfemur -3.68402 3.31892 -2.52814
rtibia 52.4486
rfoot -6.56305 -20.9152
rtoes -2.88654
lfemur -377.964 4.45183 -396.638
ltibia 39.1071
lfoot 10.2486 -30.6905
ltoes -7.78328
272
root 11.2652 17.4082 -7.36641 -181.843 259.315 -5.22132
lowerback 4.0268 0.491411 5.99819
upperback -9.51603 2.24064 8.71354
thorax -12.8783 0.880381 5.99335
lowerneck -4.76097 -12.8445 -9.1148
upperneck -9.78892 -17.9685 5.00588
head -1.06675 -9.39597 2.80432
rclavicle -1.00187e-013 -4.13472e-014
rhumerus -30.8731 64.1163 -112.686
rradius 84.5313
rwrist -7.13347
rhand -25.7147 29.7349
rfingers 7.12502
rthumb 0.821302 -0.243248
lclavicle -1.00187e-013 -4.13472e-014
lhumerus 58.1714 29.7244 -5.92985
lradius 49.9917
lwrist -5.9788
lhand -31.8367 -94.2977
lfingers 7.12502
lthumb -5.0911 -124.217
rfemur -6.8371 3.47005 -2.62666
rtibia 52.0465
rfoot -7.7779 -21.4589
rtoes -2.35219
lfemur -380.613 4.60923 -396.436
ltibia 38.6179
lfoot 7.16129 -31.9183
ltoes -10.8069
273
root 11.3533 17.3768 -7.51075 -180.96 267.873 -7.34927
lowerback 5.50138 -0.0921473 6.48221
upperback -9.28753 1.6125 8.3591
thorax -13.4627 0.528923 5.4303
lowerneck -6.12101 -12.4403 -9.52677
upperneck -8.35344 -17.1637 5.05644
head -0.384191 -8.94069 2.73324
rclavicle 9.85972e-014 1.01778e-013
rhumerus -27.7832 62.9795 -110.587
rradius 86.6837
rwrist -10.6057
rhand -29.7236 30.956
rfingers 7.12502
rthumb -3.05052 0.998037
lclavicle 9.85972e-014 1.01778e-013
lhumerus 56.7755 27.5463 -7.07668
lradius 48.8932
lwrist -10.1181
lhand -33.2479 -270.231
lfingers 7.12502
lthumb -6.45351 -119.65
rfemur -9.87176 3.2506 -2.33911
rtibia 51.4384
rfoot -9.07842 -22.089
rtoes -2.11673
lfemur -383.373 4.36013 -395.739
ltibia 38.6124
lfoot 4.00073 -31.6782
ltoes -11.6209
274
root 11.453 17.3428 -7.6599 -182.452 276.193 -7.22605
lowerback 6.61844 -0.13297 5.906
upperback -8.9457 1.55051 8.14472
thorax -13.7487 0.560374 5.52207
lowerneck -6.49443 -11.969 -8.52227
upperneck -8.73551 -16.666 3.86816
head -0.677353 -8.70069 2.24007
rclavicle -4.77083e-015 -6.36111e-014
rhumerus -23.5687 61.1007 -106.116
rradius 88.7299
rwrist -11.8306
rhand -31.0811 32.209
rfingers 7.12502
rthumb -4.36144 2.27392
lclavicle -4.77083e-015 -6.36111e-014
lhumerus 56.9361 25.9262 -4.89899
lradius 47.6983
lwrist -14.9822
lhand -34.891 -274.768
lfingers 7.12502
lthumb -8.03961 -115.059
rfemur -12.3969 2.9631 -1.72117
rtibia 50.7383
rfoot -9.9485 -22.3522
rtoes -3.02449
lfemur -386.082 4.75555 -394.782
ltibia 39.1201
lfoot 0.854143 -30.9958
ltoes -13.2134
275
root 11.5496 17.2693 -7.8111 -183.689 284.038 -7.51437
lowerback 7.57175 -0.414464 5.83453
upperback -8.51104 1.16656 7.80522
thorax -13.7897 0.378003 5.23697
lowerneck -7.4232 -11.6939 -8.9234
upperneck -7.9217 -16.1329 3.62844
head -0.283354 -8.3984 2.14684
rclavicle -7.63333e-014 7.95139e-014
rhumerus -19.6584 60.4185 -102.251
rradius 90.484
rwrist -11.7806
rhand -33.2239 33.2579
rfingers 7.12502
rthumb -6.43033 3.37553
lclavicle -7.63333e-014 7.95139e-014
lhumerus 55.724 24.824 -3.43283
lradius 47.034
lwrist -19.2367
lhand -37.0337 -279.136
lfingers 7.12502
lthumb -10.1072 -110.601
rfemur -14.1043 2.903 -0.357177
rtibia 49.8549
rfoot -10.4534 -22.18
rtoes -3.34529
lfemur -388.785 6.24166 -393.422
ltibia 40.3716
lfoot -4.18511 -30.7125
ltoes -19.3351
